<?xml version="1.0" encoding="UTF-8" standalone="no"?>
<!DOCTYPE svg PUBLIC "-//W3C//DTD SVG 1.1//EN" "http://www.w3.org/Graphics/SVG/1.1/DTD/svg11.dtd">
<svg width="100%" height="100%" viewBox="0 0 46 38" version="1.1" xmlns="http://www.w3.org/2000/svg" xmlns:xlink="http://www.w3.org/1999/xlink" xml:space="preserve" xmlns:serif="http://www.serif.com/" style="fill-rule:evenodd;clip-rule:evenodd;stroke-linejoin:round;stroke-miterlimit:2;">
    <g transform="matrix(1,0,0,1,0,-2.006)">
        <path d="M0,12.593L0,12.693L22.823,23.28L45.726,12.656L45.726,12.629L22.823,2.006L0,12.593ZM8.228,12.643L22.823,5.873L37.42,12.643L22.823,19.413L8.228,12.643ZM22.823,27.393L0,16.962L0,20.819L22.823,31.272L45.726,20.784L45.726,16.926L22.823,27.392L22.823,27.393ZM22.823,35.215L0,24.785L0,28.643L22.823,39.097L45.726,28.607L45.726,24.75L22.823,35.215Z" style="fill:white;"/>
    </g>
</svg>
